<?xml version="1.0" standalone="no"?>
<!DOCTYPE svg PUBLIC "-//W3C//DTD SVG 20010904//EN"
 "http://www.w3.org/TR/2001/REC-SVG-20010904/DTD/svg10.dtd">
<svg version="1.0" xmlns="http://www.w3.org/2000/svg"
 width="960.000000pt" height="960.000000pt" viewBox="0 0 960.000000 960.000000"
 preserveAspectRatio="xMidYMid meet">
<metadata>
Created by potrace 1.15, written by Peter Selinger 2001-2017
</metadata>
<g transform="translate(0.000000,960.000000) scale(0.100000,-0.100000)"
fill="#000000" stroke="none">
<path d="M204 9570 c4 -35 -18 -70 -45 -70 -10 0 -19 -4 -19 -9 0 -6 -31 -13
-70 -17 l-70 -7 0 -52 c0 -58 19 -78 49 -51 27 24 78 29 112 12 17 -9 36 -13
41 -10 5 3 16 -2 23 -12 8 -11 15 -14 15 -7 0 14 53 27 79 18 25 -8 34 -45 16
-65 -8 -9 -15 -21 -15 -27 0 -6 -5 -13 -10 -15 -7 -2 -7 -19 -2 -49 9 -48 -3
-77 -38 -91 -29 -11 -175 20 -223 46 l-47 27 0 -826 0 -825 29 0 c21 0 36 8
50 29 12 16 21 35 21 43 0 21 36 70 62 84 34 19 61 17 87 -7 19 -18 22 -29 17
-57 -3 -19 -14 -45 -25 -56 -18 -19 -20 -30 -14 -76 3 -30 21 -86 40 -125 36
-76 41 -115 18 -159 -30 -57 -19 -67 137 -128 125 -48 165 -66 198 -89 14 -9
42 -20 63 -24 20 -4 40 -11 43 -16 2 -5 23 -13 46 -19 36 -10 42 -9 59 9 12
13 19 35 19 63 0 32 6 49 25 66 13 13 35 44 47 70 13 26 26 49 30 50 5 2 8 9
8 16 0 7 13 33 30 57 16 24 30 52 30 61 0 9 14 25 31 35 21 12 41 39 61 83 17
36 34 74 40 85 11 24 25 47 60 100 15 22 36 67 48 100 12 33 28 74 36 92 8 17
14 38 14 46 0 8 7 20 15 27 8 7 15 19 15 26 0 8 5 14 10 14 6 0 10 5 10 11 0
5 19 38 42 71 22 34 54 95 70 135 15 41 39 89 52 106 12 18 31 52 40 77 10 25
35 78 57 118 21 41 48 100 58 133 11 32 31 74 44 91 29 38 104 194 137 286 29
78 21 100 -47 133 -26 12 -68 37 -93 55 -25 17 -66 41 -90 52 -52 24 -76 44
-108 90 -17 24 -31 32 -53 32 -16 0 -29 -4 -29 -9 0 -14 -48 -23 -129 -26 -71
-2 -75 -1 -135 39 -33 23 -82 50 -108 60 -27 10 -48 21 -48 26 0 19 -34 40
-64 40 -47 0 -63 22 -42 55 9 14 23 25 30 25 12 0 25 28 26 53 0 4 -54 7 -120
7 -68 0 -120 -4 -120 -9 0 -18 -39 -22 -69 -7 -24 13 -70 16 -245 16 l-216 0
4 -30z m149 -901 c40 -17 101 -44 137 -61 36 -17 81 -37 100 -45 46 -20 110
-49 187 -84 34 -16 64 -29 67 -29 2 0 35 -14 73 -32 37 -17 106 -48 152 -69
97 -43 118 -59 127 -94 9 -37 -34 -81 -87 -89 -22 -4 -57 -17 -77 -30 -61 -39
-108 -40 -214 -6 -51 16 -145 46 -208 66 -63 20 -122 40 -130 45 -8 5 -31 16
-50 24 -19 8 -46 22 -60 30 -14 8 -43 24 -66 35 -22 10 -48 28 -58 39 -10 11
-32 23 -50 27 -44 9 -56 22 -56 60 0 28 7 38 40 60 l40 27 0 68 c0 54 4 70 18
78 26 16 38 14 115 -20z"/>
<path d="M1742 9566 c-5 -18 -28 -64 -51 -101 -54 -91 -55 -124 -2 -148 22
-10 59 -19 82 -20 l43 -2 48 80 c48 80 118 210 118 220 0 3 -52 5 -115 5
l-114 0 -9 -34z"/>
<path d="M3807 9468 c-36 -73 -68 -144 -72 -157 -4 -14 -12 -29 -17 -35 -6 -6
-49 -90 -97 -186 -47 -96 -93 -177 -101 -181 -8 -4 -37 -13 -65 -21 l-50 -14
2 -43 c1 -24 9 -54 18 -68 15 -22 15 -28 2 -56 -9 -18 -18 -44 -22 -59 -4 -14
-15 -35 -25 -46 -11 -11 -27 -44 -36 -74 -36 -112 -71 -121 -227 -55 -56 24
-118 50 -137 57 -63 26 -119 61 -147 94 -16 17 -40 38 -55 45 -16 8 -28 22
-28 32 0 20 36 32 61 19 20 -11 25 -5 59 60 56 109 53 100 37 118 -25 27 -138
80 -183 85 -23 3 -77 23 -120 45 -105 53 -139 60 -154 33 -13 -26 -30 -26 -72
-2 -18 11 -52 22 -74 26 -48 7 -60 -3 -55 -51 3 -42 -22 -99 -50 -114 -20 -11
-54 -10 -120 6 -26 6 -30 1 -101 -143 -43 -85 -77 -166 -81 -192 -4 -29 -22
-69 -60 -125 -48 -71 -131 -237 -168 -335 -7 -19 -27 -55 -44 -80 -32 -46
-135 -258 -135 -278 0 -5 -14 -31 -31 -56 -17 -26 -48 -91 -69 -145 -21 -53
-56 -137 -79 -186 -25 -53 -41 -100 -39 -116 1 -15 -3 -34 -9 -41 -6 -8 -19
-41 -28 -74 -10 -33 -21 -64 -25 -70 -23 -29 -60 -111 -60 -133 0 -17 -15 -39
-45 -68 -70 -65 -62 -92 51 -162 27 -17 61 -43 75 -58 34 -37 195 -164 207
-164 5 0 13 12 17 28 7 28 45 90 79 130 36 41 73 54 155 54 83 -1 121 14 121
48 0 11 14 34 32 50 25 24 38 30 58 25 55 -14 75 -59 46 -101 -14 -19 -66
-114 -66 -119 0 -2 14 -8 31 -16 20 -8 37 -25 45 -46 12 -29 12 -38 -1 -69
-19 -47 -19 -90 0 -98 21 -8 19 -26 -11 -69 -21 -31 -28 -36 -40 -26 -21 17
-61 3 -99 -37 -27 -28 -35 -44 -35 -73 0 -51 -28 -76 -83 -74 -23 0 -45 -3
-48 -8 -6 -10 14 -129 38 -229 21 -85 29 -316 12 -347 -14 -26 -43 -30 -65 -8
-30 30 -44 84 -44 174 0 110 -35 374 -55 419 -23 50 -109 137 -182 182 -67 43
-692 360 -708 360 -6 0 -23 7 -40 16 -62 32 -433 189 -510 215 l-80 27 -3
-286 c-1 -157 1 -289 5 -293 5 -4 46 -24 93 -44 206 -90 334 -147 392 -176 35
-17 101 -48 148 -68 180 -79 242 -109 465 -222 270 -137 400 -211 432 -246 26
-27 24 -58 -6 -81 -24 -20 -165 -9 -286 22 -60 16 -103 22 -108 17 -14 -14 31
-116 63 -144 14 -13 57 -39 96 -58 38 -20 89 -47 114 -61 25 -15 79 -45 120
-67 93 -49 194 -132 210 -172 10 -22 11 -53 4 -117 l-9 -86 -76 -46 c-41 -25
-89 -56 -106 -70 -42 -34 -127 -149 -163 -221 -32 -61 -71 -93 -158 -123 l-42
-15 0 38 c0 75 -16 85 -335 221 -93 39 -174 76 -179 81 -11 10 -56 13 -56 3 0
-3 7 -12 15 -20 8 -9 15 -32 15 -52 0 -63 -71 -192 -105 -192 -11 0 -147 63
-175 81 -36 23 -81 39 -138 48 -62 10 -148 36 -167 50 -5 5 -22 11 -38 15
l-27 6 0 -418 0 -419 48 -17 c26 -10 85 -35 132 -56 47 -21 102 -44 123 -51
20 -7 37 -17 37 -22 0 -28 -152 -208 -298 -353 l-42 -43 2 -1438 3 -1438 24
43 c14 23 28 42 31 42 9 0 28 -63 26 -87 -1 -24 -63 -96 -75 -89 -5 4 -10 -57
-10 -139 l-2 -145 4133 0 c3907 1 4132 2 4111 18 -12 9 -47 32 -77 51 l-56 34
0 83 c0 46 -7 132 -15 191 -8 59 -17 186 -18 281 -3 147 -2 172 10 167 8 -3
27 -8 41 -11 15 -4 32 -11 39 -16 18 -15 111 -37 131 -31 11 3 23 22 31 51 19
64 19 64 47 46 13 -9 24 -14 24 -11 0 14 100 -48 142 -89 52 -50 56 -66 33
-110 -8 -16 -15 -53 -15 -83 l0 -54 -34 6 c-19 3 -50 12 -68 20 -61 27 -93 38
-173 57 -101 25 -125 25 -125 3 0 -24 7 -33 60 -73 24 -19 80 -70 125 -113
144 -141 249 -220 458 -346 l119 -71 339 0 339 0 0 2479 c0 2478 0 2479 -21
2527 l-20 48 21 16 c15 11 21 25 18 44 -3 28 -3 27 -32 -17 -30 -49 -51 -63
-71 -47 -7 5 -42 9 -79 8 -74 -2 -92 8 -101 57 -7 42 81 214 119 233 53 26
103 -13 121 -96 3 -18 15 -37 26 -42 19 -11 19 -1 17 526 -3 498 -4 538 -20
548 -13 8 -23 8 -36 -1 -15 -9 -30 -5 -81 22 -35 19 -85 38 -112 44 -63 14
-108 37 -105 53 2 7 6 21 10 30 5 11 0 30 -13 51 -12 19 -21 45 -21 58 0 24
36 105 51 115 5 3 9 18 9 35 0 27 -2 29 -40 29 -35 0 -44 -4 -58 -30 -9 -16
-26 -33 -37 -38 -25 -11 -75 5 -75 24 0 10 -9 13 -32 10 -18 -3 -34 -5 -35 -5
-9 -4 23 -61 36 -66 40 -12 47 -82 12 -116 -36 -35 -94 -30 -224 17 -62 23
-120 33 -136 24 -21 -11 -46 -62 -65 -132 -9 -31 -34 -88 -56 -126 -33 -56
-43 -85 -50 -149 -17 -142 -38 -247 -63 -318 -14 -38 -32 -95 -42 -125 -18
-59 -84 -200 -231 -492 -52 -103 -94 -196 -94 -206 0 -22 30 -52 51 -52 7 0
54 -20 104 -44 49 -24 110 -53 135 -64 25 -12 56 -28 70 -36 14 -8 122 -62
240 -120 118 -58 244 -126 280 -151 36 -25 80 -55 98 -67 17 -11 32 -24 32
-29 0 -5 7 -9 14 -9 19 0 106 -58 106 -71 0 -5 8 -9 18 -9 9 0 37 -16 61 -35
41 -33 42 -35 18 -35 -14 0 -48 11 -75 25 -28 14 -56 25 -63 26 -8 0 -32 11
-54 24 -69 40 -145 75 -164 75 -11 0 -21 4 -23 8 -4 11 -197 105 -215 105 -7
0 -13 6 -13 14 0 7 -4 13 -9 13 -4 0 -6 -11 -3 -25 2 -14 8 -22 13 -19 5 3 9
0 9 -5 0 -6 6 -11 13 -11 7 0 23 -9 35 -20 12 -11 28 -20 36 -20 8 0 17 -13
21 -30 7 -31 23 -38 43 -18 9 9 12 9 12 0 0 -8 9 -10 25 -6 15 4 32 1 40 -6 8
-7 15 -9 15 -4 0 5 7 -1 15 -13 8 -12 29 -24 46 -28 17 -4 33 -13 35 -20 3 -7
17 -16 31 -20 15 -3 38 -15 51 -26 14 -10 33 -19 43 -19 9 0 31 -11 47 -25 17
-14 33 -25 36 -25 3 0 24 -18 46 -40 30 -30 45 -38 62 -34 13 3 34 8 48 11 14
3 30 10 37 15 7 6 19 4 32 -4 21 -13 27 -55 13 -90 -15 -37 -119 -159 -140
-164 -28 -8 -59 17 -67 55 -4 19 -18 33 -48 48 -145 72 -337 163 -342 163 -14
0 -105 66 -105 76 0 7 -21 15 -47 19 -26 4 -71 16 -100 27 -38 14 -65 18 -93
13 -50 -8 -80 1 -80 25 0 10 -4 22 -10 25 -5 3 -10 15 -10 26 0 11 -7 22 -16
26 -18 6 -15 50 6 125 12 41 52 68 102 68 30 0 38 19 15 39 -8 6 -63 35 -123
65 -97 48 -141 69 -314 149 -66 30 -325 154 -398 190 -35 17 -68 39 -73 49 -5
10 -16 18 -24 18 -20 0 -19 10 8 50 26 39 80 149 92 190 19 62 30 90 35 90 4
0 10 24 12 53 7 80 58 235 79 240 10 3 27 24 39 48 13 24 41 62 64 85 40 39
66 96 66 141 0 30 38 73 65 73 33 0 55 10 55 24 0 20 -51 60 -109 85 -30 13
-69 33 -85 45 -17 11 -33 22 -34 23 -2 1 -8 18 -12 39 -7 30 -5 43 9 63 10 14
26 48 36 75 24 66 79 126 115 126 15 0 38 -9 51 -21 14 -12 31 -18 44 -14 62
17 102 16 159 -4 54 -19 62 -19 83 -6 33 22 31 68 -4 93 -28 20 -51 28 -158
58 -160 46 -249 108 -215 149 11 14 27 15 101 9 71 -5 97 -3 137 11 89 32 96
42 95 127 -1 49 -14 115 -37 201 -40 145 -41 147 -65 147 -10 0 -26 9 -36 20
-10 11 -22 17 -27 14 -4 -3 -18 15 -29 41 -26 59 -19 131 16 169 23 25 28 26
97 20 85 -7 101 3 96 58 -3 30 -9 36 -78 70 -106 54 -114 77 -63 183 14 28 34
75 45 105 25 67 63 110 97 110 14 0 56 -8 93 -17 60 -15 72 -16 130 -2 41 10
62 20 60 28 -5 24 17 40 46 31 38 -11 121 -51 128 -61 3 -5 14 -9 25 -9 10 0
19 -4 19 -10 0 -5 6 -10 13 -10 7 0 40 -14 73 -31 32 -17 88 -46 124 -64 70
-35 110 -66 110 -84 0 -6 7 -11 15 -11 15 0 17 -4 20 -53 3 -43 22 -71 70 -99
50 -31 79 -84 68 -127 -3 -14 -26 -66 -50 -115 -23 -49 -43 -95 -43 -102 0 -7
-11 -33 -25 -58 -14 -25 -22 -52 -19 -60 9 -24 55 -16 65 11 4 12 31 45 58 73
27 28 53 61 57 73 4 12 9 24 13 27 9 8 29 41 45 77 8 18 30 59 48 90 19 32 39
77 46 101 7 23 17 42 22 42 6 0 10 9 10 20 0 19 -1 19 -42 3 -40 -16 -41 -16
-60 6 -10 13 -18 33 -18 45 0 24 -35 85 -58 102 -12 9 -14 24 -8 78 4 36 11
77 16 91 8 20 6 27 -10 35 -21 11 -60 -2 -60 -20 0 -11 -41 -9 -57 3 -7 5 -13
19 -13 31 0 15 -13 27 -50 44 -27 12 -53 22 -57 22 -18 1 -61 57 -65 85 -3 26
-10 32 -68 53 -89 32 -91 33 -126 83 -23 34 -50 54 -114 86 -46 24 -98 43
-114 43 -41 0 -103 -22 -124 -44 -16 -16 -16 -18 1 -27 22 -13 22 -30 -4 -79
-20 -38 -20 -42 -5 -65 9 -14 28 -32 41 -41 23 -15 24 -18 10 -34 -8 -9 -15
-25 -15 -34 0 -23 -33 -19 -135 15 -43 14 -97 23 -140 24 -68 1 -92 7 -275 73
-30 11 -77 27 -105 35 -27 8 -108 36 -180 61 -71 25 -222 77 -335 115 -515
175 -912 311 -919 316 -5 2 -33 11 -62 19 -70 19 -404 134 -446 153 -18 8 -44
31 -59 50 -24 32 -28 46 -29 117 -1 45 -5 88 -9 98 -8 16 -35 28 -71 28 -11 0
-33 11 -50 24 -25 20 -29 29 -27 66 2 23 16 69 32 101 17 32 30 61 30 64 0 3
-153 5 -340 5 -319 0 -340 -1 -349 -18 -7 -14 -5 -29 7 -55 17 -36 48 -55 87
-54 11 0 28 -3 38 -8 11 -5 17 -3 17 6 1 21 45 48 76 47 40 -1 86 7 109 19 31
16 64 9 82 -18 9 -13 21 -27 26 -30 5 -3 8 -10 8 -15 0 -5 3 -27 6 -49 6 -35
7 -37 13 -15 l6 25 6 -29 c4 -20 0 -33 -13 -44 -24 -21 -24 -27 1 -52 21 -21
35 -27 25 -10 -4 6 7 10 24 10 17 0 31 -5 31 -11 0 -6 6 -9 13 -6 8 3 20 1 28
-4 12 -7 12 -9 0 -9 -11 0 -11 -3 -1 -15 15 -18 13 -20 -17 -29 -17 -5 -29 -1
-48 18 -14 14 -31 26 -37 26 -5 0 -23 11 -40 25 -28 23 -76 36 -64 16 3 -4 -3
-16 -14 -26 -11 -10 -20 -26 -20 -36 0 -11 -9 -24 -20 -31 -11 -7 -20 -18 -20
-25 0 -7 -9 -17 -19 -23 -16 -8 -19 -17 -14 -45 7 -45 -17 -75 -61 -75 -27 0
-95 15 -161 34 -52 16 -59 -29 -57 -389 2 -294 -5 -381 -42 -519 -13 -50 -29
-113 -36 -141 -19 -82 -41 -84 -194 -14 -150 68 -175 81 -193 102 -9 9 -24 17
-33 17 -10 0 -23 7 -30 15 -7 8 -18 15 -24 15 -22 0 -56 -79 -56 -128 0 -30
-7 -58 -20 -77 -11 -16 -20 -36 -20 -43 0 -8 -10 -22 -22 -32 -18 -14 -26 -15
-40 -6 -16 9 -17 20 -12 68 7 65 7 65 -99 100 -34 11 -92 36 -129 55 -128 67
-173 137 -129 205 11 18 30 53 41 78 18 39 167 337 197 395 6 11 36 76 66 145
81 183 185 403 197 417 5 7 10 16 10 21 0 6 15 41 34 78 18 38 41 86 49 107
l16 37 -393 0 -394 0 -65 -132z m1012 -1528 c82 19 141 -24 141 -105 0 -50
-25 -69 -85 -63 -37 3 -39 1 -72 -54 -42 -72 -81 -87 -177 -68 -81 16 -112 33
-119 66 -6 35 -1 48 26 63 12 7 38 35 57 63 80 114 99 127 153 100 23 -11 39
-11 76 -2z m-2720 -44 c60 -29 118 -57 131 -61 13 -4 83 -36 157 -71 74 -35
136 -64 138 -64 1 0 60 -27 129 -60 70 -33 128 -60 130 -60 2 0 55 -24 117
-53 63 -30 141 -67 174 -82 194 -91 256 -119 305 -142 30 -14 91 -42 135 -63
44 -20 95 -43 113 -50 40 -16 69 -56 64 -92 -4 -36 -57 -77 -103 -79 -49 -3
-66 -14 -95 -62 -59 -93 -128 -123 -175 -76 -12 12 -44 27 -72 35 -27 7 -62
24 -76 38 -16 15 -39 26 -55 26 -16 0 -44 13 -66 30 -23 18 -50 30 -68 30 -20
0 -40 10 -60 29 -16 16 -45 33 -66 36 -20 4 -52 20 -72 36 -21 16 -49 29 -64
29 -17 0 -40 12 -60 30 -18 17 -42 30 -55 30 -12 0 -40 12 -61 26 -21 15 -55
31 -74 37 -19 5 -45 19 -58 32 -12 12 -38 25 -57 28 -20 3 -49 17 -66 31 -20
17 -43 26 -64 26 -24 0 -44 9 -67 30 -20 18 -43 30 -61 30 -16 0 -38 10 -52
24 -13 13 -39 27 -57 31 -80 16 -125 53 -111 92 7 19 40 69 61 91 15 17 15 31
-3 62 -28 50 -12 142 30 172 16 12 22 10 134 -46z m4021 -379 c65 -34 71 -64
28 -152 -24 -50 -45 -78 -76 -100 -23 -16 -76 -56 -119 -88 -42 -32 -84 -56
-92 -55 -9 2 -21 19 -27 38 -10 30 -8 41 11 80 13 25 29 63 36 85 6 22 24 54
38 70 14 17 37 51 50 76 38 71 77 83 151 46z m-1605 -138 c11 21 13 18 25 -36
7 -32 12 -72 11 -88 -1 -20 6 -40 21 -58 36 -41 51 -36 43 17 -6 35 -3 50 11
70 11 14 24 26 31 26 15 0 25 -50 22 -108 -2 -34 3 -59 20 -91 42 -80 16 -178
-57 -210 -21 -10 -32 -22 -32 -35 0 -25 -50 -126 -62 -126 -4 0 -8 -8 -8 -18
0 -10 -6 -26 -13 -37 -7 -11 -21 -41 -31 -67 -17 -45 -17 -51 -1 -97 11 -33
14 -62 9 -87 -5 -27 -4 -35 5 -30 6 4 8 12 5 18 -4 6 -1 16 7 22 13 10 30 40
98 169 32 60 70 104 99 112 20 6 22 3 22 -27 -1 -36 -23 -139 -35 -158 -4 -6
-7 -41 -7 -76 0 -35 -3 -64 -8 -64 -15 0 -31 -57 -24 -85 l7 -28 -69 6 c-69 5
-79 11 -110 63 -11 18 -13 18 -50 -2 -22 -12 -53 -25 -70 -28 -26 -6 -32 -3
-42 19 -7 14 -12 37 -12 51 0 32 -19 39 -56 19 -16 -8 -37 -15 -46 -15 -24 0
-69 20 -95 43 -11 10 -29 17 -40 15 -14 -3 -11 -8 16 -22 55 -29 92 -72 59
-67 -11 1 -21 -41 -11 -48 11 -8 11 -74 0 -82 -4 -3 -15 -37 -23 -75 -35 -160
-32 -175 41 -167 43 5 44 5 50 -30 14 -75 -43 -176 -107 -192 -19 -5 -28 -14
-29 -29 0 -11 -11 -39 -24 -61 -25 -41 -37 -66 -60 -121 -21 -49 7 -87 83
-109 26 -8 73 -32 103 -52 30 -21 71 -47 89 -57 19 -11 71 -43 115 -71 44 -28
91 -58 105 -65 34 -17 90 -71 90 -86 0 -7 20 -25 45 -41 l46 -28 -4 -88 c-6
-132 -26 -139 -103 -35 -25 35 -53 67 -62 72 -36 21 -55 45 -49 66 10 37 -74
111 -188 165 -55 26 -102 50 -105 54 -4 5 -56 29 -135 62 -11 4 -45 16 -75 25
-84 25 -231 86 -269 111 -18 12 -48 25 -67 29 -19 3 -37 10 -40 15 -10 17 -61
9 -79 -11 -18 -20 -18 -30 -8 -178 6 -86 16 -170 22 -185 6 -16 11 -59 11 -96
0 -70 15 -115 47 -143 10 -8 55 -29 100 -47 45 -18 102 -46 127 -61 25 -16 76
-43 113 -60 110 -51 145 -68 192 -94 24 -14 68 -28 97 -32 30 -3 54 -10 54
-15 0 -5 6 -9 14 -9 24 0 28 -18 7 -29 -10 -6 -72 -15 -137 -21 -106 -10 -125
-10 -198 9 -45 11 -117 23 -161 26 -96 8 -217 30 -243 44 -21 11 -48 135 -38
169 6 18 -25 124 -43 146 -20 25 -41 143 -35 197 3 30 6 126 6 214 1 144 -2
169 -26 248 -20 67 -34 97 -60 123 -19 19 -39 34 -45 34 -6 0 -11 14 -11 31 0
26 3 30 18 24 18 -8 46 -10 99 -7 26 2 38 10 58 42 29 46 85 183 85 208 0 9
13 44 29 77 42 85 61 131 61 145 0 6 12 27 26 46 15 19 24 37 21 40 -3 3 17
28 44 55 53 54 82 109 74 143 -14 62 -13 78 5 96 10 10 21 27 25 39 3 12 10
21 15 21 5 0 27 19 48 42 32 34 46 42 75 42 20 0 44 -8 55 -17 34 -31 57 -21
106 45 26 35 49 74 52 88 3 14 9 32 15 40 5 8 13 24 18 35 5 11 21 30 35 43
25 21 26 23 11 52 -23 44 -18 79 18 126 31 42 69 64 109 64 27 0 90 50 84 67
-3 7 -1 13 4 13 6 0 10 12 11 28 l1 27 10 -29 c11 -29 11 -29 23 -7z m1928
-151 c15 1 37 2 50 3 31 2 131 -28 135 -41 2 -5 7 -8 12 -5 4 2 23 -3 41 -12
44 -22 57 -24 63 -8 4 11 12 11 40 3 28 -9 36 -17 36 -35 0 -22 27 -33 43 -16
11 11 57 12 57 2 0 -6 7 -6 19 1 23 12 31 13 30 3 -4 -23 3 -35 16 -29 16 6
48 -20 58 -45 4 -11 8 -9 21 6 16 21 21 13 16 -29 -1 -14 3 -18 19 -13 15 3
27 -2 41 -20 10 -13 24 -22 29 -18 6 3 23 -14 38 -37 15 -24 31 -44 36 -46 4
-2 7 -14 7 -26 0 -31 11 -39 26 -18 11 14 13 14 14 2 0 -12 2 -12 9 -2 5 9 15
2 35 -28 14 -22 31 -40 38 -40 12 0 98 -89 98 -102 0 -5 7 -8 15 -8 8 0 19 -9
25 -20 6 -11 16 -20 22 -20 15 0 37 -31 38 -53 0 -9 9 -25 20 -34 11 -10 20
-23 20 -29 0 -18 34 -51 48 -47 7 3 12 -4 12 -19 0 -13 9 -40 19 -60 11 -20
27 -75 36 -122 9 -47 29 -111 45 -143 17 -32 30 -71 30 -88 0 -16 10 -46 21
-65 20 -32 21 -43 14 -138 -3 -58 -10 -114 -15 -126 -4 -11 -16 -47 -25 -79
-10 -32 -20 -56 -23 -53 -8 8 -43 -64 -37 -74 3 -6 0 -7 -8 -4 -8 3 -17 -2
-20 -11 -4 -8 -18 -20 -32 -25 -14 -5 -24 -13 -23 -17 2 -5 -1 -8 -7 -8 -5 0
-9 4 -7 8 1 5 -3 7 -10 4 -7 -2 -12 -17 -12 -34 1 -21 -4 -32 -19 -39 -20 -9
-47 -78 -39 -102 5 -16 -15 -16 -21 1 -3 7 -6 4 -6 -6 -1 -13 -6 -17 -20 -12
-15 4 -19 -1 -24 -27 -4 -18 -9 -44 -13 -57 -6 -19 -4 -23 8 -18 12 4 14 1 11
-14 -6 -20 -23 -27 -23 -9 0 6 -15 0 -34 -12 -19 -13 -33 -25 -31 -29 11 -17
-114 -54 -129 -39 -15 15 -26 12 -26 -5 0 -8 -9 -15 -20 -15 -27 0 -25 -18 3
-31 18 -8 37 -7 77 5 64 19 95 21 66 5 -15 -9 -16 -13 -5 -20 11 -7 11 -11 2
-17 -7 -4 -24 -30 -39 -57 -14 -28 -38 -68 -53 -90 -111 -162 -144 -205 -152
-199 -12 7 -48 -30 -69 -71 -8 -16 -29 -37 -45 -47 -17 -9 -41 -31 -53 -48
-13 -16 -26 -30 -30 -30 -4 0 -4 33 1 73 4 39 10 106 12 147 4 57 9 78 22 87
62 44 163 178 177 236 4 15 11 25 16 22 5 -3 9 3 9 12 1 32 7 58 20 82 7 13
11 36 9 53 -3 16 -1 31 4 34 4 3 8 21 8 40 0 39 -50 120 -80 129 -9 3 -32 25
-50 50 -19 25 -38 45 -44 45 -5 0 -6 3 -3 7 12 11 -27 32 -58 32 l-30 0 25
-17 c38 -26 121 -105 132 -125 8 -17 7 -17 -12 -7 -20 11 -21 10 -10 -9 6 -12
9 -21 8 -22 -29 -6 -80 -6 -106 1 -26 7 -34 5 -39 -6 -3 -8 -11 -14 -17 -14
-14 0 -67 56 -70 74 -1 6 -7 20 -13 32 -7 11 -13 46 -15 78 -3 65 -6 68 -68
89 -25 8 -68 27 -97 41 -33 17 -78 29 -120 33 -54 6 -62 8 -38 13 l30 7 -27 7
c-36 10 -78 0 -78 -20 0 -10 -8 -14 -27 -12 -20 2 -28 -2 -31 -16 -2 -11 0
-16 7 -12 12 8 14 4 5 -18 -3 -8 -12 -12 -21 -9 -13 5 -15 2 -11 -15 4 -15 2
-22 -8 -22 -8 0 -14 -5 -14 -11 0 -5 5 -7 11 -4 6 4 0 -12 -13 -35 -55 -101
-60 -113 -48 -120 8 -5 6 -9 -6 -14 -13 -5 -14 -10 -6 -18 6 -6 7 -19 2 -33
-5 -14 -4 -27 3 -34 8 -8 7 -11 -5 -11 -19 0 -28 -57 -31 -200 -3 -137 -36
-181 -76 -102 -30 59 -42 65 -110 57 -48 -5 -71 -3 -121 16 -64 23 -64 23 -99
112 -12 31 -39 44 -102 49 -39 3 -44 1 -49 -22 -3 -14 -14 -42 -24 -64 -15
-33 -15 -43 -5 -69 10 -25 10 -32 -2 -41 -8 -6 -20 -24 -28 -41 -8 -17 -16
-24 -18 -17 -10 25 -53 -1 -53 -32 0 -9 -4 -16 -10 -16 -5 0 -10 -4 -10 -10 0
-14 34 -12 48 2 10 10 14 8 18 -9 7 -25 35 -37 64 -28 13 4 22 1 26 -9 3 -9
11 -16 18 -16 6 0 13 -10 13 -22 1 -13 7 -24 12 -26 6 -2 26 -14 46 -28 20
-13 48 -27 63 -30 15 -4 32 -11 39 -16 7 -6 13 -4 16 4 3 7 6 4 6 -7 1 -27 40
-52 52 -33 7 10 9 9 9 -4 0 -10 5 -18 10 -18 6 0 10 -9 10 -21 0 -14 5 -19 14
-16 10 4 13 1 10 -8 -3 -8 -12 -11 -20 -8 -20 8 -18 -24 3 -36 11 -6 24 -6 36
1 25 13 29 6 22 -36 -9 -47 -26 -45 -65 4 -17 22 -38 40 -45 40 -7 0 -15 5
-17 11 -2 5 -24 12 -48 15 -25 3 -63 13 -85 23 -22 11 -53 25 -70 32 -41 19
-115 79 -115 94 0 19 -37 49 -42 34 -3 -8 -14 -2 -31 14 -14 15 -37 27 -51 27
-58 0 -101 38 -60 54 8 3 13 10 10 15 -3 5 2 7 13 4 11 -3 21 2 25 12 3 9 10
13 16 10 6 -3 10 4 9 17 0 13 -3 17 -6 11 -6 -16 -24 -17 -21 -1 2 6 -5 14
-15 16 -16 3 -18 0 -12 -18 5 -14 3 -20 -3 -16 -6 3 -24 -6 -41 -20 -34 -28
-75 -27 -51 1 7 8 16 12 21 9 5 -3 9 0 9 6 0 6 12 22 26 35 31 29 25 48 -11
32 -14 -7 -25 -15 -25 -19 0 -5 -10 -8 -23 -8 -13 0 -32 -7 -43 -15 -25 -19
-34 -19 -34 0 0 24 -30 17 -40 -9 -5 -13 -13 -27 -19 -30 -12 -8 -11 -65 1
-72 4 -3 8 -13 7 -22 0 -11 -3 -12 -6 -4 -8 19 -22 14 -61 -23 -20 -19 -38
-30 -40 -25 -5 15 -29 12 -36 -5 -3 -8 -17 -15 -31 -15 -20 0 -25 5 -25 24 0
13 -7 29 -15 36 -13 11 -13 16 1 42 19 36 11 48 -16 23 -16 -14 -21 -15 -25
-4 -7 20 -1 44 14 63 20 24 2 41 -19 16 -9 -11 -20 -20 -24 -20 -9 0 16 42 37
61 26 24 22 57 -8 65 -13 3 -24 9 -23 13 2 18 -4 21 -18 7 -24 -24 -38 -19
-21 7 20 31 24 71 9 89 -9 11 -10 23 -2 42 8 21 7 26 -5 26 -8 0 -15 8 -16 18
-1 9 -2 39 -4 65 -2 30 2 53 11 61 7 8 15 32 16 54 2 22 6 38 9 36 4 -2 11 14
17 36 6 27 7 42 0 46 -5 4 -7 20 -4 38 4 17 7 56 7 86 0 30 4 64 9 75 5 11 14
31 20 45 10 25 30 60 40 70 11 11 32 47 60 105 17 33 46 87 66 120 19 33 37
68 40 77 6 17 34 34 34 20 0 -4 -7 -27 -15 -52 -8 -25 -29 -92 -46 -150 -48
-163 -55 -181 -88 -245 -29 -56 -38 -85 -26 -85 4 0 20 7 36 16 36 18 49 12
27 -13 -21 -24 -65 -114 -68 -138 -7 -60 6 -75 71 -81 159 -15 344 -75 481
-156 56 -33 74 -39 102 -34 19 4 39 13 46 21 6 8 30 25 53 39 43 25 177 146
162 146 -4 0 2 8 14 19 12 11 19 25 15 34 -5 13 1 15 36 12 35 -3 46 0 64 20
44 49 74 91 90 127 10 21 32 47 49 58 l32 22 -27 -5 c-16 -2 -28 0 -28 4 0 5
5 9 11 9 17 0 39 27 39 48 0 22 -51 82 -69 82 -7 0 -9 -15 -6 -42 l5 -43 -11
35 c-16 52 -84 137 -129 160 -21 11 -41 28 -44 37 -9 25 -116 103 -206 151
-153 80 -277 91 -373 31 -26 -16 -45 -34 -42 -39 12 -19 -20 -10 -50 15 -24
19 -26 24 -12 25 22 0 18 19 -6 34 -13 8 -20 6 -32 -9 -14 -19 -15 -17 -9 25
4 25 10 63 14 85 8 38 8 39 9 8 2 -60 30 -27 31 35 0 31 29 72 51 72 14 0 18
9 21 48 2 30 7 46 15 45 7 -2 17 7 24 18 8 17 8 20 -1 14 -9 -6 -10 3 -5 36 9
52 13 58 26 39 6 -10 8 0 6 33 -4 60 12 84 136 207 100 100 180 164 230 185
20 8 40 21 44 28 4 7 73 29 153 49 190 47 241 62 276 81 21 11 44 14 84 9 30
-3 67 -5 83 -4z m-1303 -820 c16 -22 30 -48 30 -56 0 -9 5 -30 12 -47 10 -29
8 -40 -19 -96 l-30 -64 -20 45 c-11 25 -24 56 -27 70 -11 41 -59 140 -68 140
-13 0 -9 17 8 34 8 9 31 16 50 16 28 0 39 -7 64 -42z m-2466 -27 c27 -29 31
-92 11 -145 -15 -39 -16 -53 -6 -85 15 -52 14 -74 -6 -108 -31 -55 -93 -74
-116 -36 -6 10 -18 12 -39 8 -42 -10 -115 13 -138 43 -31 39 -26 79 13 102 17
11 43 20 57 20 47 0 56 14 42 64 -6 25 -10 51 -8 58 3 7 7 25 10 39 11 49 145
79 180 40z m-2203 -11 c92 -31 408 -190 424 -214 22 -30 19 -92 -5 -116 -39
-39 -104 -17 -237 82 -45 33 -107 66 -164 88 -100 38 -149 75 -149 112 1 34
28 64 63 67 4 1 35 -8 68 -19z m5199 -191 c69 -14 72 -16 60 -39 -6 -12 -17
-16 -30 -13 -11 3 -28 -1 -37 -8 -13 -11 -17 -11 -20 -1 -7 20 -27 14 -74 -22
-25 -18 -59 -37 -76 -40 -17 -4 -37 -14 -44 -22 -6 -8 -16 -14 -21 -14 -10 0
-8 19 7 67 5 16 2 23 -14 28 -28 9 -26 29 4 43 14 6 25 16 25 21 0 22 107 22
220 0z m-663 -237 c17 -34 11 -58 -26 -99 -9 -10 -32 -49 -51 -88 -19 -38 -43
-79 -52 -89 -17 -18 -18 -18 -44 -1 -26 17 -28 17 -41 -1 -26 -36 -9 -63 28
-44 11 7 23 9 26 7 6 -7 -17 -74 -35 -104 -14 -22 -52 -32 -52 -14 0 5 -10 11
-22 13 -18 2 -24 11 -26 37 -4 43 11 81 63 156 39 56 95 173 95 197 0 27 35
88 50 88 9 0 22 12 29 28 l13 27 15 -40 c8 -22 21 -55 30 -73z m-2461 -19 c3
-16 7 -32 8 -38 3 -10 -92 -176 -124 -217 -12 -15 -24 -27 -28 -26 -13 3 -52
-13 -52 -22 0 -5 -3 -15 -6 -24 -3 -9 -2 -16 4 -16 13 0 86 -70 79 -77 -9 -9
-54 5 -71 22 -8 8 -19 15 -25 15 -6 0 -11 4 -11 9 0 5 -8 12 -17 15 -34 12
-63 33 -56 40 4 4 -1 4 -10 0 -12 -4 -26 1 -40 14 -12 11 -33 23 -47 27 -46
12 -80 27 -80 36 0 4 16 11 35 15 31 6 50 24 25 24 -5 0 -10 5 -10 10 0 6 9
10 20 10 15 0 22 -8 26 -29 5 -24 17 -33 77 -60 80 -34 107 -40 88 -17 -14 17
-6 54 24 116 79 159 91 175 141 190 43 12 43 12 50 -17z m6054 -273 c74 -14
94 -34 86 -88 -10 -73 -84 -194 -127 -207 -39 -13 -74 4 -101 49 -23 39 -24
45 -12 74 7 18 18 57 23 88 7 37 18 62 33 74 27 23 30 23 98 10z m-4142 -52
c31 -31 -14 -167 -62 -189 -53 -24 -88 24 -66 90 27 83 93 134 128 99z m-2358
-15 c0 -9 6 -24 13 -32 18 -23 11 -140 -10 -148 -15 -6 -116 13 -143 26 -27
14 -17 43 18 55 19 7 38 20 44 29 5 10 13 15 19 12 5 -4 9 3 9 15 0 26 21 60
37 60 7 0 13 -8 13 -17z m7048 -248 c6 -13 23 -27 37 -31 30 -7 34 -39 6 -54
-12 -6 -21 -23 -23 -43 -2 -17 -7 -32 -13 -32 -5 0 -16 -4 -23 -8 -14 -10 -27
16 -18 38 3 8 1 15 -4 15 -6 0 -10 -4 -10 -10 0 -5 -7 -10 -16 -10 -9 0 -23
-8 -30 -17 -12 -16 -13 -15 -14 13 0 23 -6 34 -25 42 -14 6 -25 18 -25 27 0 9
-9 15 -22 15 -18 0 -20 2 -8 9 8 6 18 8 22 5 4 -3 21 2 37 11 16 8 37 12 45 9
9 -3 25 5 38 19 29 32 33 32 46 2z m-7174 -298 c18 -13 46 -78 46 -107 0 -9 9
-23 19 -32 13 -11 18 -24 14 -39 -6 -21 -10 -21 -81 -15 -41 3 -96 6 -121 6
-39 1 -44 3 -29 13 15 12 24 37 42 120 13 57 69 84 110 54z m5731 -29 c17 -8
29 -24 36 -52 6 -23 13 -47 15 -54 2 -8 12 -16 22 -19 10 -2 24 -14 31 -25 18
-29 1 -42 -44 -34 -36 7 -37 9 -32 42 5 28 2 37 -18 50 -36 23 -73 20 -152
-15 -39 -17 -76 -31 -82 -31 -23 0 -23 30 0 66 40 65 157 103 224 72z m-1467
-167 c25 -65 27 -67 92 -102 117 -62 229 -159 292 -253 98 -148 140 -266 93
-266 -12 0 -41 -36 -57 -70 -4 -10 -7 -10 -7 -2 -1 19 -18 14 -24 -8 -3 -11
-17 -24 -31 -30 -14 -5 -26 -14 -26 -19 0 -6 -6 -8 -14 -5 -16 6 -46 -8 -70
-32 -11 -10 -16 -11 -16 -3 0 8 -6 7 -17 -4 -12 -10 -28 -13 -45 -10 -24 5
-28 2 -28 -18 0 -19 2 -21 10 -9 5 8 12 11 17 7 4 -5 -3 -17 -17 -27 -27 -21
-46 -13 -60 25 -10 26 -53 27 -58 3 -2 -9 -10 -19 -18 -22 -11 -4 -13 0 -8 21
l7 27 -30 -22 -29 -21 0 65 c1 66 -9 80 -32 43 -7 -12 -16 -19 -18 -16 -3 3 5
22 18 44 14 21 30 71 38 111 8 44 18 71 24 69 7 -3 12 11 12 34 1 26 -2 37 -9
32 -7 -4 -8 0 -3 12 7 19 -29 105 -45 105 -5 0 -9 8 -9 17 0 15 -2 14 -15 -3
-8 -10 -15 -28 -15 -39 -1 -19 -1 -19 -13 3 -10 17 -16 19 -25 10 -9 -9 -12
-8 -16 3 -11 34 -14 75 -6 89 5 10 2 24 -11 40 l-19 25 0 -42 c0 -25 -5 -43
-11 -43 -7 0 -9 12 -4 37 3 20 8 55 10 79 5 61 20 84 55 84 34 0 59 28 84 94
10 25 21 46 24 46 4 0 17 -27 30 -59z m1775 22 c26 -29 29 -67 12 -127 -20
-69 -37 -87 -78 -82 -26 2 -34 9 -44 37 -24 68 -11 139 30 171 28 23 60 23 80
1z m-2728 -126 c35 -6 147 -43 192 -63 17 -8 37 -14 45 -14 7 0 42 -18 78 -41
36 -22 106 -60 155 -83 77 -37 106 -59 202 -152 61 -60 124 -119 138 -132 26
-21 27 -26 21 -80 -4 -31 -8 -67 -9 -78 -1 -13 -7 -19 -15 -17 -9 4 -12 -4
-10 -24 1 -17 -7 -42 -20 -60 -12 -17 -22 -37 -22 -45 0 -7 -4 -19 -9 -27 -8
-12 -13 -12 -24 -3 -12 10 -16 9 -21 -3 -3 -8 -10 -15 -16 -15 -6 0 -8 5 -5
10 3 6 1 10 -4 10 -6 0 -11 -4 -11 -9 0 -12 -58 -19 -69 -8 -11 11 -31 1 -31
-17 0 -18 -40 -28 -56 -15 -8 6 -14 7 -18 0 -4 -5 -17 0 -31 13 -15 14 -35 22
-50 21 -16 -2 -25 2 -25 11 0 8 -7 14 -15 14 -8 0 -23 4 -33 9 -52 26 -71 33
-81 27 -6 -4 -15 4 -21 18 -6 16 -17 26 -29 26 -11 0 -27 7 -35 16 -9 8 -20
13 -25 9 -5 -3 -13 0 -16 6 -4 5 -13 8 -21 5 -9 -3 -14 2 -14 14 0 13 -5 18
-15 13 -9 -3 -22 2 -30 13 -13 17 -16 17 -25 4 -8 -13 -12 -12 -25 8 -9 12
-23 22 -31 22 -8 0 -13 4 -10 8 3 5 -6 19 -21 32 -18 16 -28 19 -33 10 -5 -8
-11 -1 -18 19 -6 17 -16 31 -21 31 -6 0 -11 7 -11 15 0 8 -8 24 -17 34 -52 56
-70 79 -71 92 0 8 -5 32 -11 54 -6 26 -6 43 0 51 5 7 7 23 4 36 -5 18 0 31 19
49 14 13 26 32 26 42 0 9 5 17 10 17 6 0 10 5 10 10 0 12 86 120 109 136 12 9
18 9 26 -1 5 -7 24 -15 40 -18z m2335 -84 c0 -10 3 -28 6 -40 5 -17 -2 -31
-25 -53 -17 -18 -31 -39 -31 -47 0 -25 30 -53 56 -53 22 0 64 -45 64 -70 0 -7
-11 -25 -25 -42 -18 -21 -24 -40 -23 -66 0 -20 -6 -51 -15 -67 -20 -39 -57
-81 -68 -78 -5 2 -16 -11 -24 -27 -12 -24 -14 -47 -9 -105 6 -64 4 -82 -16
-130 -12 -30 -26 -55 -31 -55 -14 0 -64 24 -71 35 -5 6 -11 6 -20 -3 -6 -6
-25 -12 -40 -12 -15 0 -28 -4 -28 -9 0 -14 -33 -23 -40 -11 -5 9 -73 13 -145
8 -11 0 -54 3 -95 7 -41 4 -80 8 -86 8 -19 1 -74 -25 -74 -34 0 -15 -44 -9
-67 9 -25 21 -43 102 -21 102 7 0 3 8 -11 19 -21 16 -22 20 -10 39 8 12 17 22
22 22 4 0 32 25 61 57 l52 56 48 -18 c27 -10 65 -34 84 -52 29 -27 42 -33 66
-30 52 8 92 38 111 83 10 24 28 53 41 65 23 22 33 72 16 83 -4 2 -39 -11 -76
-29 l-68 -35 -33 26 c-29 22 -32 29 -25 52 14 47 20 57 41 70 18 12 24 11 43
-7 12 -12 30 -21 39 -21 21 0 41 43 23 49 -18 6 -56 44 -56 55 0 6 9 17 20 24
22 13 27 52 8 53 -10 0 -10 2 0 6 6 2 12 13 12 23 0 36 73 150 87 136 3 -3 0
-26 -6 -52 -7 -25 -10 -48 -8 -50 2 -2 17 2 33 10 16 8 41 18 57 21 25 7 27 5
27 -25 l0 -31 33 22 c17 13 34 26 37 30 3 4 32 27 65 53 64 48 95 58 95 29z
m1015 -427 c46 -16 574 -280 592 -296 23 -20 25 -56 5 -96 -24 -46 -56 -110
-150 -304 -206 -423 -262 -540 -262 -548 0 -5 -20 -48 -44 -96 -40 -78 -44
-94 -39 -135 6 -50 -6 -94 -52 -196 -58 -129 -91 -164 -148 -159 -28 3 -107
58 -107 75 0 5 8 26 19 47 10 20 22 51 25 67 6 30 26 55 122 159 25 27 60 81
78 120 75 161 90 192 106 216 10 14 37 74 61 135 23 60 50 117 58 127 19 21
86 143 136 248 20 41 52 107 72 146 54 112 52 117 -93 190 -67 34 -135 66
-150 73 -33 13 -57 27 -99 57 -74 53 -139 75 -180 61 -21 -7 -110 -148 -141
-222 -19 -47 -96 -205 -124 -255 -10 -19 -29 -57 -41 -85 -11 -27 -35 -79 -52
-114 -16 -36 -29 -79 -29 -95 3 -66 -10 -104 -52 -154 -72 -84 -74 -97 -28
-183 22 -41 53 -95 71 -120 17 -26 31 -51 31 -56 0 -4 21 -31 46 -58 47 -52
68 -90 59 -105 -8 -12 -73 -30 -110 -30 -40 0 -197 55 -246 85 -45 29 -83 96
-75 131 9 33 42 49 73 35 32 -15 63 -14 63 2 0 7 -11 28 -24 48 -13 20 -38 61
-55 92 -44 82 -53 96 -88 148 -68 101 -89 163 -58 175 11 5 12 10 4 26 -11 20
0 37 24 38 4 0 7 7 7 14 0 8 12 21 28 28 19 10 26 21 25 36 -2 12 1 22 6 22 5
0 25 25 46 55 32 49 39 54 63 49 81 -18 72 -103 -14 -139 -34 -14 -43 -37 -42
-105 0 -19 -3 -48 -6 -65 -5 -24 0 -37 23 -63 25 -29 32 -32 49 -23 12 6 44
59 73 119 43 89 170 349 387 791 27 55 44 77 67 87 38 17 42 17 90 0z m-4339
-80 c20 -20 29 -78 28 -173 -1 -46 -3 -157 -5 -248 -2 -118 1 -169 9 -177 7
-7 12 -24 12 -39 0 -15 7 -32 15 -39 8 -7 15 -19 15 -27 0 -7 7 -16 15 -19 8
-4 15 -10 15 -15 0 -6 9 -22 20 -37 11 -15 22 -38 25 -51 2 -13 11 -31 18 -40
8 -9 17 -25 20 -36 3 -11 17 -51 32 -90 15 -38 34 -89 42 -112 8 -23 33 -61
54 -84 21 -23 39 -45 39 -49 0 -14 65 -75 77 -72 6 1 14 -2 18 -8 3 -5 15 -10
26 -10 10 0 19 -5 19 -11 0 -5 4 -7 10 -4 13 8 90 -27 133 -59 19 -14 39 -26
44 -26 6 0 13 -7 17 -15 3 -8 15 -15 26 -15 11 0 39 -9 63 -19 79 -36 98 -39
299 -43 91 -2 152 -8 159 -15 12 -12 -11 -31 -201 -171 -58 -43 -146 -110
-196 -150 -50 -39 -95 -72 -100 -72 -5 0 -31 -20 -58 -45 -26 -25 -51 -45 -53
-45 -3 0 -27 -18 -53 -40 -26 -22 -50 -40 -53 -40 -3 0 -23 -16 -44 -35 -21
-19 -43 -35 -50 -35 -7 0 -17 -9 -23 -20 -6 -11 -16 -19 -22 -17 -7 1 -17 -8
-23 -20 -5 -13 -18 -23 -27 -23 -12 0 -18 -8 -18 -21 0 -17 -5 -20 -25 -17
-21 5 -25 2 -20 -13 6 -18 3 -20 -35 -23 -8 -1 -14 -9 -12 -19 2 -10 -3 -17
-12 -17 -10 0 -13 -6 -10 -17 5 -17 5 -17 -6 0 -17 27 -31 20 -25 -13 4 -23 1
-32 -17 -41 -24 -13 -68 -59 -68 -71 0 -5 -5 -8 -12 -8 -6 0 -4 8 6 19 9 10
16 24 14 32 -2 7 3 14 10 15 6 1 15 2 18 3 4 0 -5 12 -19 25 -27 25 -67 26
-67 1 0 -8 -3 -21 -7 -31 -4 -12 -3 -15 5 -10 7 4 12 3 12 -2 0 -6 -17 -13
-37 -18 -23 -4 -31 -9 -20 -11 25 -6 21 -25 -5 -21 -11 2 -23 -2 -25 -7 -4
-13 35 -17 42 -4 4 5 11 7 16 4 5 -4 12 1 15 9 8 20 24 21 24 1 0 -23 -305
-324 -316 -312 -6 5 26 130 35 137 3 3 6 12 6 20 0 8 5 14 12 13 6 -1 16 3 22
11 8 10 5 12 -12 12 -19 -1 -22 3 -18 34 2 19 3 193 3 385 0 314 -2 363 -22
475 -11 68 -25 129 -29 135 -5 5 -11 87 -15 180 -4 94 -9 184 -11 200 -2 17
-9 80 -15 140 -6 61 -15 126 -21 145 -12 46 -12 50 6 50 9 0 12 6 8 16 -4 10
-8 12 -13 5 -10 -16 -44 24 -37 44 4 8 13 15 21 15 15 0 29 63 15 68 -14 6
-11 82 4 82 8 0 8 3 1 8 -9 6 6 104 30 194 2 9 8 38 12 65 8 57 27 99 54 116
11 6 20 20 20 30 0 13 5 17 16 13 8 -3 12 -2 9 4 -6 9 43 83 80 121 8 9 15 20
15 26 0 6 7 14 16 17 8 3 12 10 9 16 -3 6 1 13 9 16 9 3 16 12 16 20 0 18 8
18 26 0z m4419 -437 c49 -18 95 -99 95 -167 0 -54 -52 -133 -106 -160 -33 -17
-107 -42 -126 -42 -38 0 -18 -28 25 -35 87 -14 117 -27 117 -51 0 -44 -78 -47
-136 -4 -24 17 -55 30 -77 32 -28 1 -49 13 -84 45 -26 23 -44 46 -39 50 4 4
39 7 77 6 47 -1 69 2 69 10 5 224 15 260 80 305 37 25 59 27 105 11z m-978
-36 c73 -94 103 -189 71 -221 -18 -18 -33 -15 -67 17 -21 20 -31 38 -31 59 0
16 -7 49 -16 73 -8 24 -17 59 -18 77 -4 45 24 43 61 -5z m-822 -497 c39 -18
92 -41 118 -50 76 -26 101 -40 274 -158 35 -24 63 -50 63 -60 0 -9 5 -20 10
-23 16 -10 12 -43 -6 -53 -11 -6 -30 -2 -60 14 -24 13 -44 21 -44 17 0 -3 -11
5 -23 19 -24 25 -67 46 -67 32 0 -7 40 -46 101 -99 37 -32 110 -75 128 -75 6
0 11 5 11 10 0 6 -6 10 -14 10 -19 0 -27 13 -17 28 5 9 18 7 49 -10 33 -18 43
-30 48 -57 5 -24 16 -39 40 -53 19 -11 34 -24 34 -29 0 -5 7 -9 16 -9 19 0
104 -51 104 -62 0 -5 9 -8 20 -8 11 0 20 -5 20 -10 0 -6 8 -14 18 -17 9 -4 27
-17 39 -30 12 -13 31 -23 43 -23 11 0 20 -4 20 -9 0 -5 17 -17 37 -26 21 -10
44 -24 51 -32 7 -7 20 -13 27 -13 19 0 85 -40 85 -51 0 -5 9 -9 20 -9 11 0 20
-4 20 -10 0 -5 7 -10 16 -10 8 0 22 -7 31 -15 8 -8 19 -13 24 -10 5 4 9 1 9
-4 0 -6 7 -11 15 -11 8 0 23 -8 33 -18 26 -26 99 -62 127 -62 13 0 39 -13 57
-28 18 -16 49 -39 68 -52 19 -13 37 -27 40 -31 3 -3 12 -8 20 -11 8 -3 -21 -3
-65 -1 -44 3 -84 8 -90 12 -5 4 -44 20 -85 36 -41 16 -84 35 -95 42 -11 7 -27
13 -37 13 -9 0 -41 14 -70 31 -29 17 -70 38 -91 45 -20 7 -52 20 -70 28 -44
19 -70 29 -82 30 -5 1 -23 6 -40 13 -16 6 -63 19 -104 28 -40 9 -90 22 -109
31 -19 8 -38 12 -41 8 -3 -3 4 -22 16 -42 11 -20 31 -75 43 -122 13 -47 33
-105 46 -130 27 -55 82 -113 101 -106 7 3 13 2 13 -2 0 -4 18 -13 41 -20 43
-13 131 -52 139 -61 3 -3 21 -14 40 -23 19 -10 42 -22 50 -27 8 -5 72 -37 142
-70 70 -34 132 -70 138 -80 18 -34 11 -71 -21 -116 -48 -66 -66 -72 -141 -45
-35 13 -72 29 -84 36 -11 6 -45 19 -75 28 -30 9 -104 41 -166 72 -106 54 -113
59 -131 103 -34 80 -35 89 -13 117 36 45 27 63 -33 68 -28 2 -47 14 -88 57
-29 30 -78 76 -108 101 -33 28 -66 68 -83 100 -19 37 -80 107 -187 215 -110
111 -166 176 -185 214 -15 30 -45 80 -67 111 -43 61 -44 86 -5 121 25 21 27
21 55 1 13 -9 26 -14 29 -10 9 8 -7 76 -17 76 -6 0 -10 6 -10 13 0 7 -18 26
-40 43 -89 64 -113 85 -146 126 -18 24 -34 46 -34 50 0 6 26 12 70 17 8 0 47
-14 85 -33z m1840 -1135 c3 -11 3 -30 0 -43 -4 -13 -7 -47 -9 -75 -4 -103 -60
-111 -113 -16 -19 33 -16 48 12 61 18 8 25 19 25 40 0 35 16 52 51 52 18 0 30
-6 34 -19z m340 -1111 c11 -13 18 -34 17 -58 l-1 -37 20 24 c17 21 22 22 30
10 5 -7 6 -25 2 -39 -10 -35 -5 -149 8 -182 13 -32 -4 -88 -26 -88 -21 0 -36
-121 -16 -128 13 -4 15 -52 2 -52 -5 0 -16 11 -25 25 -25 38 -36 22 -36 -54 0
-54 -4 -73 -20 -91 -23 -26 -76 -32 -90 -10 -7 11 -14 8 -34 -13 -20 -22 -31
-26 -53 -21 -16 4 -37 15 -48 25 -11 10 -35 31 -54 47 -29 25 -36 39 -43 88
-25 166 -23 193 16 213 19 11 23 18 17 35 -17 44 15 107 70 142 23 14 39 28
36 31 -3 2 -1 17 4 32 11 30 45 51 83 51 14 0 28 10 37 26 23 45 75 56 104 24z"/>
<path d="M3704 5925 c3 -8 -1 -21 -9 -29 -8 -8 -15 -21 -15 -30 0 -26 17 -27
35 0 13 21 22 25 43 19 37 -9 50 -24 32 -35 -11 -7 -7 -10 18 -10 28 0 32 -3
31 -22 -4 -41 1 -78 9 -78 5 0 17 7 28 15 18 14 18 14 -3 10 -13 -2 -23 0 -23
6 0 5 11 9 25 9 14 0 25 -4 25 -8 0 -5 7 -9 15 -9 10 0 13 7 9 24 -7 28 10 30
52 8 51 -26 92 -17 78 18 -4 12 -17 14 -60 10 -36 -4 -54 -2 -54 5 0 14 -51
42 -162 91 -57 25 -82 27 -74 6z"/>
<path d="M5397 4523 c-7 -45 4 -103 27 -138 9 -13 16 -35 16 -49 0 -14 5 -28
11 -32 8 -4 9 -29 5 -75 -8 -75 -2 -97 19 -79 9 8 14 7 18 -5 5 -10 15 -13 35
-9 16 3 38 1 48 -4 24 -13 94 4 174 41 71 33 87 47 96 81 7 28 6 29 -30 22
-38 -7 -49 5 -18 23 9 6 11 11 5 11 -7 0 -21 -8 -31 -18 -18 -18 -18 -17 -19
12 -3 69 -7 100 -11 88 -3 -10 -7 -10 -19 -1 -8 7 -13 8 -12 3 1 -5 -3 -20 -9
-34 -10 -23 -11 -22 -11 18 -1 39 -3 42 -27 42 -22 0 -25 2 -14 15 10 12 10
15 -3 15 -9 0 -20 6 -24 14 -4 8 -11 15 -16 15 -53 4 -134 32 -161 57 -34 33
-42 30 -49 -13z"/>
<path d="M9436 9558 c-10 -24 -24 -58 -32 -76 -10 -23 -11 -39 -4 -52 13 -24
91 -51 114 -38 23 13 86 144 86 180 l0 28 -73 0 -74 0 -17 -42z"/>
<path d="M4962 9417 c-60 -64 22 -130 149 -119 53 4 54 5 53 36 -1 17 -2 36
-2 42 -2 16 -75 44 -112 44 -16 0 -32 5 -35 10 -10 16 -30 11 -53 -13z"/>
<path d="M4740 8621 c-5 -11 -10 -27 -10 -35 0 -9 -5 -16 -10 -16 -6 0 3 -13
20 -30 16 -16 30 -38 30 -48 0 -25 -29 -82 -41 -82 -6 0 -8 -4 -4 -9 3 -6 -10
-39 -30 -75 -20 -37 -32 -72 -29 -81 16 -41 157 -73 183 -41 7 9 22 16 32 16
11 0 28 9 39 20 34 34 27 119 -20 264 -39 119 -41 124 -71 130 -53 10 -78 7
-89 -13z"/>
</g>
</svg>
